<?xml version="1.0" encoding="UTF-8"?><svg id="Layer_1" xmlns="http://www.w3.org/2000/svg" viewBox="0 0 1446.02 490.43"><defs><style>.cls-1{fill:#fff;}.cls-2{fill:#ca0086;}</style></defs><path class="cls-1" d="M490.43,160.76h34.1c18.45,0,31.75,1.7,39.9,5.11,8.15,3.41,14.58,8.92,19.29,16.54,4.71,7.62,7.06,16.75,7.06,27.39,0,11.79-3.08,21.59-9.24,29.4-6.16,7.81-14.53,13.24-25.09,16.31-6.2,1.76-17.49,2.64-33.87,2.64v71.54h-32.15v-168.91ZM522.58,226.78h10.22c8.04,0,13.62-.58,16.76-1.73,3.14-1.15,5.61-3.05,7.41-5.7,1.8-2.65,2.7-5.86,2.7-9.62,0-6.53-2.53-11.29-7.58-14.29-3.67-2.23-10.49-3.34-20.44-3.34h-9.07v34.68Z"/><path class="cls-1" d="M677.48,201.52c11.79,0,22.87,2.95,33.24,8.84,10.37,5.9,18.47,13.89,24.29,24,5.82,10.1,8.73,21.01,8.73,32.73s-2.93,22.81-8.78,33.07c-5.86,10.26-13.84,18.28-23.94,24.06-10.1,5.78-21.24,8.67-33.41,8.67-17.91,0-33.2-6.37-45.87-19.12-12.67-12.75-19-28.23-19-46.45,0-19.52,7.16-35.79,21.47-48.8,12.55-11.33,26.98-16.99,43.29-16.99ZM678,231.03c-9.74,0-17.85,3.39-24.33,10.16-6.48,6.77-9.72,15.44-9.72,26.01s3.2,19.67,9.6,26.41c6.4,6.74,14.51,10.1,24.33,10.1s17.98-3.41,24.5-10.22c6.52-6.81,9.78-15.58,9.78-26.29s-3.2-19.42-9.6-26.12c-6.4-6.7-14.59-10.05-24.56-10.05Z"/><path class="cls-1" d="M845.82,222.19l-19.41,19.41c-7.88-7.81-15.04-11.71-21.47-11.71-3.52,0-6.28.75-8.27,2.24-1.99,1.49-2.99,3.35-2.99,5.57,0,1.69.63,3.23,1.89,4.65,1.26,1.42,4.38,3.35,9.36,5.8l11.48,5.74c12.09,5.97,20.4,12.06,24.92,18.26,4.52,6.2,6.78,13.47,6.78,21.82,0,11.1-4.08,20.36-12.23,27.79-8.15,7.43-19.08,11.14-32.78,11.14-18.22,0-32.76-7.12-43.63-21.36l19.29-21.01c3.67,4.29,7.98,7.75,12.92,10.39,4.94,2.64,9.32,3.96,13.15,3.96,4.13,0,7.46-.99,9.99-2.99,2.53-1.99,3.79-4.29,3.79-6.89,0-4.82-4.56-9.53-13.66-14.12l-10.56-5.28c-20.21-10.18-30.31-22.93-30.31-38.24,0-9.88,3.81-18.31,11.43-25.32,7.62-7,17.36-10.51,29.22-10.51,8.11,0,15.75,1.78,22.91,5.34,7.16,3.56,13.22,8.67,18.2,15.33Z"/><path class="cls-1" d="M876.59,158.69h31.35v46.05h18.6v26.98h-18.6v97.95h-31.35v-97.95h-16.08v-26.98h16.08v-46.05Z"/><path class="cls-1" d="M1186.51,188.32l-22.64,22.39c-14.33-15.16-31.03-22.74-50.11-22.74-16.63,0-30.55,5.51-41.78,16.54-11.22,11.02-16.84,24.42-16.84,40.19s5.82,30.12,17.47,41.45c11.65,11.33,26.02,16.99,43.11,16.99,11.11,0,20.48-2.33,28.11-7,7.62-4.67,13.77-11.98,18.45-21.93h-48.92v-30.2h84.97l.23,7.12c0,14.78-3.83,28.78-11.48,42.03-7.66,13.24-17.57,23.35-29.74,30.31-12.17,6.96-26.45,10.45-42.83,10.45-17.53,0-33.17-3.81-46.91-11.43-13.74-7.62-24.61-18.47-32.61-32.55-8-14.08-12-29.28-12-45.59,0-22.35,7.39-41.8,22.16-58.33,17.53-19.67,40.34-29.51,68.44-29.51,14.7,0,28.44,2.72,41.22,8.15,10.79,4.59,21.36,12.48,31.69,23.65Z"/><path class="cls-1" d="M1283.31,201.52c11.79,0,22.87,2.95,33.24,8.84,10.37,5.9,18.47,13.89,24.29,24,5.82,10.1,8.73,21.01,8.73,32.73s-2.93,22.81-8.78,33.07c-5.86,10.26-13.84,18.28-23.94,24.06-10.11,5.78-21.24,8.67-33.42,8.67-17.91,0-33.21-6.37-45.87-19.12-12.67-12.75-19-28.23-19-46.45,0-19.52,7.16-35.79,21.47-48.8,12.55-11.33,26.98-16.99,43.29-16.99ZM1283.83,231.03c-9.74,0-17.85,3.39-24.33,10.16-6.48,6.77-9.72,15.44-9.72,26.01s3.2,19.67,9.6,26.41c6.4,6.74,14.51,10.1,24.33,10.1s17.98-3.41,24.5-10.22c6.52-6.81,9.78-15.58,9.78-26.29s-3.2-19.42-9.61-26.12c-6.4-6.7-14.59-10.05-24.56-10.05Z"/><path class="cls-1" d="M179.76,96.61l133.37-.16c4.85.42,9.09,2.58,12.65,5.76,18.93,21.49,44.11,40.8,62.43,62.43,3.2,3.78,5.32,7.59,5.76,12.65v131.81c-.44,5.99-5.6,9.93-11.31,10.55-16.61,1.79-36.33-1.7-52.86.07-5.27.57-9.49,5.48-10.07,10.64-1.85,16.46,2.16,37.28-.05,53.46-.71,5.2-5.87,9.91-11.15,10.14h-125.48c-6.63.03-11.51-4.87-12.28-11.31-1.98-16.52,1.95-37.07-.05-53.46-.54-4.39-5.14-8.96-9.49-9.49-16.39-2-36.94,1.93-53.46-.05-6.43-.77-11.33-5.65-11.31-12.28v-125.48c.22-5.25,4.92-10.43,10.14-11.15,15.97-2.18,36.46,1.59,52.88-.06,5.48-.55,10.62-4.35,11.23-10.06,1.77-16.53-1.72-36.26.07-52.86.57-5.31,3.77-9.69,8.98-11.15ZM251.71,170.86c-4.69.56-8.97,2.92-12.54,5.87-20.02,16.56-37.94,40.58-57.83,57.82-3.38,3.57-2.35,8.77,2.34,10.34,16.02,1.23,34.27-1.55,50.02.04,6.77.68,11.11,5.03,11.8,11.8,1.59,15.75-1.2,34,.04,50.02,1.58,4.71,6.79,5.71,10.34,2.34,17.24-19.9,41.26-37.81,57.82-57.83,3.68-4.44,5.65-8.8,6.06-14.65,1.25-17.89-.98-37.22-.02-55.26-.63-5.59-5.59-10.33-11.2-10.67-18.08,1.45-39.1-1.93-56.83.18Z"/><path class="cls-2" d="M251.71,170.86c17.72-2.11,38.75,1.27,56.83-.18,5.61.34,10.57,5.08,11.2,10.67-.96,18.05,1.27,37.37.02,55.26-.41,5.86-2.38,10.21-6.06,14.65-16.56,20.02-40.58,37.94-57.82,57.83-3.55,3.36-8.76,2.37-10.34-2.34-1.23-16.02,1.56-34.27-.04-50.02-.68-6.77-5.02-11.11-11.8-11.8-15.75-1.59-34,1.2-50.02-.04-4.69-1.57-5.72-6.77-2.34-10.34,19.9-17.24,37.81-41.26,57.83-57.82,3.57-2.95,7.84-5.31,12.54-5.87Z"/></svg>