<?xml version="1.0" encoding="UTF-8"?><svg id="Layer_1" xmlns="http://www.w3.org/2000/svg" viewBox="0 0 490.43 490.43"><defs><style>.cls-1{fill:#fff;}.cls-2{fill:#ca0086;}</style></defs><path class="cls-1" d="M179.76,96.61l133.37-.16c4.85.42,9.09,2.58,12.65,5.76,18.93,21.49,44.11,40.8,62.43,62.43,3.2,3.78,5.32,7.59,5.76,12.65v131.81c-.44,5.99-5.6,9.93-11.31,10.55-16.61,1.79-36.33-1.7-52.86.07-5.27.57-9.49,5.48-10.07,10.64-1.85,16.46,2.16,37.28-.05,53.46-.71,5.2-5.87,9.91-11.15,10.14h-125.48c-6.63.03-11.51-4.87-12.28-11.31-1.98-16.52,1.95-37.07-.05-53.46-.54-4.39-5.14-8.96-9.49-9.49-16.39-2-36.94,1.93-53.46-.05-6.43-.77-11.33-5.65-11.31-12.28v-125.48c.22-5.25,4.92-10.43,10.14-11.15,15.97-2.18,36.46,1.59,52.88-.06,5.48-.55,10.62-4.35,11.23-10.06,1.77-16.53-1.72-36.26.07-52.86.57-5.31,3.77-9.69,8.98-11.15ZM251.71,170.86c-4.69.56-8.97,2.92-12.54,5.87-20.02,16.56-37.94,40.58-57.83,57.82-3.38,3.57-2.35,8.77,2.34,10.34,16.02,1.23,34.27-1.55,50.02.04,6.77.68,11.11,5.03,11.8,11.8,1.59,15.75-1.2,34,.04,50.02,1.58,4.71,6.79,5.71,10.34,2.34,17.24-19.9,41.26-37.81,57.82-57.83,3.68-4.44,5.65-8.8,6.06-14.65,1.25-17.89-.98-37.22-.02-55.26-.63-5.59-5.59-10.33-11.2-10.67-18.08,1.45-39.1-1.93-56.83.18Z"/><path class="cls-2" d="M251.71,170.86c17.72-2.11,38.75,1.27,56.83-.18,5.61.34,10.57,5.08,11.2,10.67-.96,18.05,1.27,37.37.02,55.26-.41,5.86-2.38,10.21-6.06,14.65-16.56,20.02-40.58,37.94-57.82,57.83-3.55,3.36-8.76,2.37-10.34-2.34-1.23-16.02,1.56-34.27-.04-50.02-.68-6.77-5.02-11.11-11.8-11.8-15.75-1.59-34,1.2-50.02-.04-4.69-1.57-5.72-6.77-2.34-10.34,19.9-17.24,37.81-41.26,57.83-57.82,3.57-2.95,7.84-5.31,12.54-5.87Z"/></svg>